<svg width="163" height="142" viewBox="0 0 163 142" fill="none" xmlns="http://www.w3.org/2000/svg">
<path d="M60.97 98.83C65.65 105.15 67.95 113.2 67.3 121.04C66.66 128.88 63.09 136.45 57.45 141.93C45.6 130.43 33.75 118.92 21.9 107.42C16.69 102.37 11.45 97.27 7.33998 91.28C3.22998 85.3 0.27998 78.3 0.22998 71.05V70.95C0.27998 63.69 3.22998 56.7 7.33998 50.72C11.45 44.74 16.69 39.64 21.9 34.58C33.75 23.08 45.6 11.57 57.45 0.0700073C63.09 5.55001 66.66 13.12 67.3 20.96C67.94 28.8 65.65 36.85 60.97 43.17C56.9 48.66 51.23 52.76 46.82 57.98C45 60.14 43.44 62.55 42.35 65.16C41.67 66.77 41.11 68.47 40.96 70.22C40.82 71.92 41.2 73.57 41.72 75.18C42.78 78.43 44.61 81.43 46.82 84.03C51.23 89.24 56.9 93.34 60.97 98.83Z" fill="url(#paint0_linear_54_433)"/>
<path d="M101.35 98.83C96.67 105.15 94.37 113.2 95.02 121.04C95.66 128.88 99.23 136.45 104.87 141.93C116.72 130.43 128.57 118.92 140.42 107.42C145.63 102.37 150.87 97.27 154.98 91.28C159.09 85.3 162.04 78.3 162.09 71.05V70.95C162.04 63.69 159.09 56.7 154.98 50.72C150.87 44.74 145.63 39.64 140.42 34.58C128.57 23.08 116.72 11.57 104.87 0.0700073C99.23 5.55001 95.66 13.12 95.02 20.96C94.38 28.8 96.67 36.85 101.35 43.17C105.42 48.66 111.09 52.76 115.5 57.98C117.32 60.14 118.88 62.55 119.97 65.16C120.65 66.77 121.21 68.47 121.36 70.22C121.5 71.92 121.12 73.57 120.6 75.18C119.54 78.43 117.71 81.43 115.5 84.03C111.09 89.24 105.42 93.34 101.35 98.83Z" fill="url(#paint1_linear_54_433)"/>
<defs>
<linearGradient id="paint0_linear_54_433" x1="33.8209" y1="141.929" x2="33.8209" y2="0.0705992" gradientUnits="userSpaceOnUse">
<stop stop-color="#7521AA"/>
<stop offset="0.3603" stop-color="#6D1DB3"/>
<stop offset="0.662" stop-color="#9233E7"/>
<stop offset="1" stop-color="#DE52F8"/>
</linearGradient>
<linearGradient id="paint1_linear_54_433" x1="128.501" y1="141.929" x2="128.501" y2="0.0705992" gradientUnits="userSpaceOnUse">
<stop stop-color="#7521AA"/>
<stop offset="0.3603" stop-color="#6D1DB3"/>
<stop offset="0.662" stop-color="#9233E7"/>
<stop offset="1" stop-color="#DE52F8"/>
</linearGradient>
</defs>
</svg>
