<svg width="736" height="142" viewBox="0 0 736 142" fill="none" xmlns="http://www.w3.org/2000/svg">
<path d="M60.97 98.83C65.65 105.15 67.95 113.2 67.3 121.04C66.66 128.88 63.09 136.45 57.45 141.93C45.6 130.43 33.75 118.92 21.9 107.42C16.69 102.37 11.45 97.27 7.33998 91.28C3.22998 85.3 0.27998 78.3 0.22998 71.05V70.95C0.27998 63.69 3.22998 56.7 7.33998 50.72C11.45 44.74 16.69 39.64 21.9 34.58C33.75 23.08 45.6 11.57 57.45 0.0700073C63.09 5.55001 66.66 13.12 67.3 20.96C67.94 28.8 65.65 36.85 60.97 43.17C56.9 48.66 51.23 52.76 46.82 57.98C45 60.14 43.44 62.55 42.35 65.16C41.67 66.77 41.11 68.47 40.96 70.22C40.82 71.92 41.2 73.57 41.72 75.18C42.78 78.43 44.61 81.43 46.82 84.03C51.23 89.24 56.9 93.34 60.97 98.83Z" fill="url(#paint0_linear_54_432)"/>
<path d="M101.35 98.83C96.67 105.15 94.37 113.2 95.02 121.04C95.66 128.88 99.23 136.45 104.87 141.93C116.72 130.43 128.57 118.92 140.42 107.42C145.63 102.37 150.87 97.27 154.98 91.28C159.09 85.3 162.04 78.3 162.09 71.05V70.95C162.04 63.69 159.09 56.7 154.98 50.72C150.87 44.74 145.63 39.64 140.42 34.58C128.57 23.08 116.72 11.57 104.87 0.0700073C99.23 5.55001 95.66 13.12 95.02 20.96C94.38 28.8 96.67 36.85 101.35 43.17C105.42 48.66 111.09 52.76 115.5 57.98C117.32 60.14 118.88 62.55 119.97 65.16C120.65 66.77 121.21 68.47 121.36 70.22C121.5 71.92 121.12 73.57 120.6 75.18C119.54 78.43 117.71 81.43 115.5 84.03C111.09 89.24 105.42 93.34 101.35 98.83Z" fill="url(#paint1_linear_54_432)"/>
<path d="M255.15 45.5C260.16 48.54 264.07 52.95 266.89 58.72C269.71 64.49 271.12 71.27 271.12 79.05C271.12 86.83 269.71 93.61 266.89 99.38C264.07 105.15 260.16 109.56 255.15 112.6C250.14 115.64 244.5 117.16 238.24 117.16C231.98 117.16 226.63 115.66 222.21 112.66C217.78 109.66 214.63 105.66 212.75 100.65V116.21H193.83V16.92H212.75V57.31C214.63 52.3 217.78 48.32 222.21 45.37C226.64 42.42 231.98 40.94 238.24 40.94C244.5 40.94 250.14 42.46 255.15 45.5ZM218.18 63.28C214.47 67.17 212.61 72.43 212.61 79.05C212.61 85.58 214.47 90.79 218.18 94.68C221.89 98.57 226.61 100.52 232.34 100.52C238.24 100.52 242.98 98.62 246.56 94.82C250.14 91.02 251.93 85.76 251.93 79.05C251.93 72.34 250.14 67.06 246.56 63.22C242.98 59.38 238.24 57.45 232.34 57.45C226.61 57.45 221.89 59.39 218.18 63.28Z" fill="white"/>
<path d="M285.6 13.1C287.75 11.18 290.56 10.22 294.05 10.22C297.54 10.22 300.36 11.18 302.5 13.1C304.65 15.02 305.72 17.51 305.72 20.55C305.72 23.5 304.65 25.94 302.5 27.86C300.35 29.78 297.54 30.75 294.05 30.75C290.56 30.75 287.74 29.79 285.6 27.86C283.45 25.94 282.38 23.5 282.38 20.55C282.38 17.51 283.46 15.02 285.6 13.1ZM303.45 41.88V116.21H284.53V41.88H303.45Z" fill="white"/>
<path d="M374.5 45.4999C380.27 48.5399 384.81 52.9499 388.12 58.7199C391.43 64.4899 393.08 71.2699 393.08 79.0499C393.08 86.8299 391.42 93.5899 388.12 99.3099C384.81 105.04 380.27 109.44 374.5 112.53C368.73 115.62 362.22 117.16 354.98 117.16C347.73 117.16 341.23 115.62 335.46 112.53C329.69 109.44 325.15 105.04 321.84 99.3099C318.53 93.5899 316.88 86.8299 316.88 79.0499C316.88 71.2699 318.53 64.4899 321.84 58.7199C325.15 52.9499 329.69 48.5499 335.46 45.4999C341.23 42.4599 347.74 40.9399 354.98 40.9399C362.22 40.9399 368.73 42.4599 374.5 45.4999ZM341.56 62.8799C337.89 66.5899 336.06 71.9799 336.06 79.0499C336.06 86.1199 337.89 91.5099 341.56 95.2199C345.23 98.9299 349.7 100.79 354.98 100.79C360.26 100.79 364.73 98.9299 368.4 95.2199C372.07 91.5099 373.9 86.1199 373.9 79.0499C373.9 71.9799 372.07 66.5899 368.4 62.8799C364.73 59.1699 360.26 57.3099 354.98 57.3099C349.7 57.3099 345.22 59.1699 341.56 62.8799Z" fill="white"/>
<path d="M463.86 48.72C470.25 53.91 474.26 60.98 475.87 69.92H455.88C455.08 65.98 453.24 62.88 450.38 60.59C447.52 58.31 443.89 57.17 439.51 57.17C434.5 57.17 430.32 59.03 426.97 62.74C423.62 66.45 421.94 71.89 421.94 79.04C421.94 86.2 423.62 91.63 426.97 95.34C430.32 99.05 434.5 100.91 439.51 100.91C443.89 100.91 447.51 99.77 450.38 97.49C453.24 95.21 455.08 92.1 455.88 88.16H475.87C474.26 97.11 470.26 104.17 463.86 109.36C457.46 114.55 449.48 117.14 439.91 117.14C432.66 117.14 426.22 115.6 420.59 112.51C414.96 109.42 410.57 105.02 407.44 99.29C404.31 93.57 402.74 86.81 402.74 79.03C402.74 71.25 404.3 64.47 407.44 58.7C410.57 52.93 414.95 48.53 420.59 45.48C426.23 42.44 432.67 40.92 439.91 40.92C449.48 40.94 457.46 43.54 463.86 48.72Z" fill="white"/>
<path d="M543.16 45.4999C548.93 48.5399 553.47 52.9499 556.78 58.7199C560.09 64.4899 561.74 71.2699 561.74 79.0499C561.74 86.8299 560.08 93.5899 556.78 99.3099C553.47 105.04 548.93 109.44 543.16 112.53C537.39 115.62 530.88 117.16 523.64 117.16C516.39 117.16 509.89 115.62 504.12 112.53C498.35 109.44 493.81 105.04 490.5 99.3099C487.19 93.5899 485.54 86.8299 485.54 79.0499C485.54 71.2699 487.19 64.4899 490.5 58.7199C493.81 52.9499 498.35 48.5499 504.12 45.4999C509.89 42.4599 516.4 40.9399 523.64 40.9399C530.88 40.9399 537.39 42.4599 543.16 45.4999ZM510.22 62.8799C506.55 66.5899 504.72 71.9799 504.72 79.0499C504.72 86.1199 506.55 91.5099 510.22 95.2199C513.89 98.9299 518.36 100.79 523.64 100.79C528.92 100.79 533.39 98.9299 537.06 95.2199C540.73 91.5099 542.56 86.1199 542.56 79.0499C542.56 71.9799 540.73 66.5899 537.06 62.8799C533.39 59.1699 528.92 57.3099 523.64 57.3099C518.36 57.3099 513.88 59.1699 510.22 62.8799Z" fill="white"/>
<path d="M620.31 45.37C624.74 48.32 627.93 52.3 629.9 57.31V16.92H648.69V116.21H629.9V100.65C627.93 105.66 624.73 109.66 620.31 112.66C615.88 115.66 610.54 117.16 604.28 117.16C598.02 117.16 592.38 115.64 587.37 112.6C582.36 109.56 578.45 105.15 575.63 99.38C572.81 93.61 571.4 86.83 571.4 79.05C571.4 71.27 572.81 64.49 575.63 58.72C578.45 52.95 582.36 48.55 587.37 45.5C592.38 42.46 598.01 40.94 604.28 40.94C610.53 40.94 615.88 42.42 620.31 45.37ZM595.96 63.22C592.38 67.07 590.59 72.34 590.59 79.05C590.59 85.76 592.38 91.01 595.96 94.82C599.54 98.62 604.28 100.52 610.18 100.52C615.9 100.52 620.62 98.57 624.34 94.68C628.05 90.79 629.91 85.58 629.91 79.05C629.91 72.43 628.05 67.17 624.34 63.28C620.63 59.39 615.91 57.44 610.18 57.44C604.27 57.45 599.53 59.37 595.96 63.22Z" fill="white"/>
<path d="M735.1 82.67H680.62C680.89 89.29 682.68 94.1699 685.99 97.2899C689.3 100.42 693.41 101.99 698.33 101.99C702.71 101.99 706.36 100.92 709.27 98.7699C712.18 96.6199 714.03 93.7199 714.84 90.0499H734.83C733.84 95.2399 731.74 99.8899 728.52 104.01C725.3 108.13 721.16 111.35 716.11 113.67C711.06 116 705.44 117.16 699.27 117.16C692.02 117.16 685.58 115.62 679.95 112.53C674.32 109.44 669.93 105.04 666.8 99.3099C663.67 93.5899 662.1 86.8299 662.1 79.0499C662.1 71.2699 663.66 64.4899 666.8 58.7199C669.93 52.9499 674.31 48.5499 679.95 45.4999C685.59 42.4599 692.03 40.9399 699.27 40.9399C706.6 40.9399 713.02 42.4599 718.52 45.4999C724.02 48.5399 728.27 52.7199 731.27 58.0499C734.27 63.3699 735.77 69.4299 735.77 76.2299C735.77 78.1099 735.54 80.26 735.1 82.67ZM711.95 60.5299C708.5 57.3999 704.28 55.8299 699.27 55.8299C694.17 55.8299 689.88 57.3999 686.39 60.5299C682.9 63.6599 680.98 68.2699 680.62 74.3499H716.71C716.98 68.2699 715.39 63.6599 711.95 60.5299Z" fill="white"/>
<defs>
<linearGradient id="paint0_linear_54_432" x1="33.8209" y1="141.929" x2="33.8209" y2="0.0705992" gradientUnits="userSpaceOnUse">
<stop stop-color="#7521AA"/>
<stop offset="0.3603" stop-color="#6D1DB3"/>
<stop offset="0.662" stop-color="#9233E7"/>
<stop offset="1" stop-color="#DE52F8"/>
</linearGradient>
<linearGradient id="paint1_linear_54_432" x1="128.501" y1="141.929" x2="128.501" y2="0.0705992" gradientUnits="userSpaceOnUse">
<stop stop-color="#7521AA"/>
<stop offset="0.3603" stop-color="#6D1DB3"/>
<stop offset="0.662" stop-color="#9233E7"/>
<stop offset="1" stop-color="#DE52F8"/>
</linearGradient>
</defs>
</svg>
